<svg width="391" height="143" viewBox="0 0 391 143" fill="none" xmlns="http://www.w3.org/2000/svg">
<path d="M22.9045 143C10.2325 143 0 132.839 0 120.255V22.7454C0 10.1614 10.2325 0 22.9045 0H121.096C133.768 0 144 10.1614 144 22.7454V120.255C144 132.839 133.768 143 121.096 143H22.9045Z" fill="url(#paint0_linear)"/>
<path d="M195.426 70.6966V73.7559C195.426 80.2144 190.327 84.0894 182.985 84.0894H174.419C171.768 84.0894 170 82.5938 170 80.4183V45.4064C170 43.2309 171.836 41.7353 174.419 41.7353H182.441C189.919 41.7353 194.678 45.3384 194.678 51.8649V53.2246C194.678 57.2357 192.979 60.159 189.579 61.8586C193.455 63.3543 195.426 66.3456 195.426 70.6966ZM185.84 52.0009C185.84 49.1456 184.277 47.7859 181.217 47.7859H178.906V59.3432H181.217C184.277 59.3432 185.84 57.9155 185.84 55.1282V52.0009ZM186.52 69.2689C186.52 66.4136 184.957 65.0539 181.897 65.0539H178.838V77.8349H181.897C184.957 77.8349 186.52 76.4072 186.52 73.6199V69.2689Z" fill="#6605D2"/>
<path d="M210.383 80.4862C210.383 82.7297 208.479 84.2934 205.828 84.2934C203.176 84.2934 201.273 82.7297 201.273 80.4862V45.0665C201.273 42.891 203.176 41.3273 205.828 41.3273C208.479 41.3273 210.383 42.891 210.383 45.0665V80.4862Z" fill="#6605D2"/>
<path d="M232.614 76.6791C235.197 76.6791 236.965 78.1748 236.965 80.3503C236.965 82.4578 235.129 83.9534 232.614 83.9534H222.212C219.561 83.9534 217.793 82.4578 217.793 80.2823V44.9305C217.793 42.755 219.629 41.2593 222.212 41.2593C224.795 41.2593 226.631 42.755 226.631 44.9305V76.6111H232.614V76.6791Z" fill="#6605D2"/>
<path d="M250.493 80.4863C250.493 82.7297 248.59 84.2934 245.938 84.2934C243.287 84.2934 241.383 82.7297 241.383 80.4863V45.0665C241.383 42.891 243.287 41.3274 245.938 41.3274C248.59 41.3274 250.493 42.891 250.493 45.0665V80.4863ZM252.737 30.9938C252.737 31.6056 252.533 32.2175 252.125 32.7613L249.269 36.9764C248.454 38.1321 247.366 38.676 246.074 38.676C244.239 38.676 242.879 37.5202 242.879 36.1605C242.879 35.6167 243.015 35.1408 243.219 34.7329L245.19 30.5179C245.938 28.8862 247.162 28.0024 248.93 28.0024C251.105 27.9345 252.737 29.2942 252.737 30.9938Z" fill="#6605D2"/>
<path d="M257.835 45.2704C257.835 42.823 259.739 41.2593 262.458 41.2593C264.838 41.2593 266.469 42.3471 267.285 44.5226L275.987 66.2096V44.4546C275.987 42.551 277.619 41.2593 279.862 41.2593C282.106 41.2593 283.737 42.619 283.737 44.4546V80.4182C283.737 82.7977 282.038 84.2254 279.454 84.2254C277.279 84.2254 275.715 83.2056 274.899 81.0981L265.654 57.7795V81.0301C265.654 82.9337 264.022 84.2254 261.779 84.2254C259.535 84.2254 257.903 82.8657 257.903 81.0301V45.2704H257.835Z" fill="#6605D2"/>
<path d="M306.512 51.525C306.512 49.2815 304.948 47.9218 302.637 47.9218C300.326 47.9218 298.83 49.3495 298.83 51.525V74.1637C298.83 76.5432 300.394 77.9029 302.773 77.9029C305.152 77.9029 306.784 76.5432 306.784 74.1637V67.0254H305.152C303.793 67.0254 302.433 65.8696 302.433 64.374C302.433 62.4704 303.997 61.3147 306.308 61.3147H311.135C313.514 61.3147 315.35 62.7424 315.35 64.9179V74.0278C315.35 77.155 314.126 79.7384 311.611 81.71C309.231 83.6815 306.172 84.6333 302.501 84.6333C298.83 84.6333 295.839 83.6815 293.459 81.778C291.08 79.8744 289.856 77.359 289.856 74.2317V51.593C289.856 48.4657 291.08 45.8823 293.527 43.9787C295.975 42.0072 299.102 40.9874 302.705 40.9874C306.376 40.9874 309.367 41.9392 311.747 43.8428C314.126 45.7463 315.35 48.2617 315.35 51.389V53.7005C315.35 55.876 313.446 57.3716 310.931 57.3716C308.348 57.3716 306.512 55.876 306.512 53.7005V51.525Z" fill="#6605D2"/>
<path d="M346.011 44.9305V74.2997C346.011 77.359 344.787 79.8744 342.34 81.7779C339.96 83.6815 337.037 84.6333 333.502 84.6333C330.035 84.6333 327.111 83.7495 324.732 81.9139C322.42 80.0103 321.265 77.6309 321.265 74.5036V44.9985C321.265 42.891 323.168 41.3273 325.82 41.3273C328.403 41.3273 330.239 42.891 330.239 44.9985V74.3677C330.239 76.4752 331.598 77.6989 333.638 77.6989C335.745 77.6989 337.105 76.4752 337.105 74.3677V44.9305C337.105 42.823 338.941 41.3273 341.524 41.3273C344.243 41.2593 346.011 42.823 346.011 44.9305Z" fill="#6605D2"/>
<path d="M349.614 79.4665L357.84 45.1344C358.52 42.551 360.22 41.2593 362.939 41.2593C365.794 41.2593 367.494 42.551 368.038 45.1344L376.128 78.9906C376.332 79.6704 376.4 80.2143 376.4 80.7582C376.4 82.7297 374.564 84.2934 371.981 84.2934C369.397 84.2934 367.902 83.0696 367.562 80.6902L366.542 75.7953H358.724L357.704 80.6902C357.364 83.1376 355.869 84.2934 353.489 84.2934C351.11 84.2934 349.41 82.9337 349.41 80.8941C349.41 80.4862 349.478 80.0103 349.614 79.4665ZM359.744 69.8127H365.59L362.667 54.6522L359.744 69.8127Z" fill="#6605D2"/>
<path d="M264.989 126.787V102.763H272.843C275.45 102.763 277.408 103.302 278.717 104.38C280.037 105.458 280.697 107.053 280.697 109.165C280.697 110.287 280.378 111.283 279.74 112.152C279.102 113.01 278.233 113.675 277.133 114.148C278.431 114.511 279.454 115.204 280.202 116.227C280.961 117.239 281.341 118.449 281.341 119.857C281.341 122.013 280.642 123.707 279.245 124.939C277.848 126.171 275.874 126.787 273.321 126.787H264.989ZM268.157 115.551V124.197H273.387C274.862 124.197 276.022 123.817 276.869 123.058C277.727 122.288 278.156 121.232 278.156 119.89C278.156 116.997 276.583 115.551 273.437 115.551H268.157ZM268.157 113.01H272.942C274.328 113.01 275.434 112.663 276.259 111.97C277.095 111.277 277.513 110.336 277.513 109.148C277.513 107.828 277.128 106.871 276.358 106.277C275.588 105.672 274.416 105.37 272.843 105.37H268.157V113.01ZM294.855 117.069H289.211V126.787H286.027V102.763H293.98C296.686 102.763 298.765 103.379 300.217 104.611C301.68 105.843 302.412 107.636 302.412 109.99C302.412 111.486 302.005 112.79 301.191 113.901C300.388 115.012 299.266 115.842 297.825 116.392L303.468 126.589V126.787H300.069L294.855 117.069ZM289.211 114.478H294.079C295.652 114.478 296.901 114.071 297.825 113.257C298.76 112.443 299.227 111.354 299.227 109.99C299.227 108.505 298.782 107.366 297.891 106.574C297.011 105.782 295.735 105.381 294.063 105.37H289.211V114.478ZM320.133 120.517H310.068L307.807 126.787H304.54L313.715 102.763H316.487L325.677 126.787H322.427L320.133 120.517ZM311.025 117.91H319.193L315.101 106.673L311.025 117.91ZM335.99 116.079C333.273 115.298 331.293 114.341 330.05 113.208C328.818 112.064 328.202 110.655 328.202 108.983C328.202 107.091 328.955 105.529 330.463 104.297C331.981 103.054 333.95 102.433 336.37 102.433C338.02 102.433 339.488 102.752 340.775 103.39C342.073 104.028 343.074 104.908 343.778 106.03C344.493 107.152 344.851 108.378 344.851 109.709H341.666C341.666 108.257 341.204 107.119 340.28 106.294C339.356 105.458 338.053 105.04 336.37 105.04C334.808 105.04 333.587 105.386 332.707 106.079C331.838 106.761 331.403 107.713 331.403 108.934C331.403 109.913 331.816 110.743 332.641 111.426C333.477 112.097 334.89 112.713 336.881 113.274C338.883 113.835 340.445 114.456 341.567 115.138C342.7 115.809 343.536 116.596 344.075 117.498C344.625 118.4 344.9 119.461 344.9 120.682C344.9 122.629 344.141 124.191 342.623 125.368C341.105 126.534 339.076 127.117 336.535 127.117C334.885 127.117 333.345 126.804 331.915 126.177C330.485 125.539 329.379 124.67 328.598 123.57C327.828 122.47 327.443 121.221 327.443 119.824H330.628C330.628 121.276 331.161 122.426 332.228 123.273C333.306 124.109 334.742 124.527 336.535 124.527C338.207 124.527 339.488 124.186 340.379 123.504C341.27 122.822 341.716 121.892 341.716 120.715C341.716 119.538 341.303 118.631 340.478 117.993C339.653 117.344 338.157 116.706 335.99 116.079ZM352.375 126.787H349.207V102.763H352.375V126.787ZM361.368 124.197H372.753V126.787H358.183V102.763H361.368V124.197Z" fill="#6605D2"/>
<path d="M67.278 93.8207C64.6559 85.379 66.9582 76.8732 69.1966 73.9314C70.2838 72.5244 70.9233 71.5012 72.2024 69.3907C72.714 68.5594 73.2256 67.664 73.6093 66.4489C73.993 65.2338 74.1209 64.1466 74.1849 63.4431C73.4174 62.9955 72.5861 62.4838 71.7547 61.9722C70.6675 61.2048 69.6442 60.5013 68.7489 59.7339L65.3594 56.2165L54.2956 44.641L42.3364 32.2981C40.4817 30.3155 37.348 30.2516 35.3655 32.1702C33.383 34.0248 33.2551 37.2864 35.2376 39.141C45.4061 48.8619 53.0165 57.3676 53.0165 57.3676C53.9758 58.3269 57.0455 62.7396 56.0223 63.6989C55.063 64.6582 53.5921 64.1466 52.6328 63.1873L27.0516 36.519C25.197 34.5364 22.0633 34.4725 20.0808 36.3911C18.0982 38.2457 17.9064 41.5713 19.9529 43.3619C28.4586 51.0363 45.534 70.0303 45.534 70.0303C46.4933 70.9896 47.3247 72.0768 46.3014 73.0361C45.3422 73.9953 42.848 72.8442 41.8887 71.8849C41.8887 71.8849 27.7551 56.3444 20.4645 49.7572C18.8017 48.2223 16.3076 48.0944 14.6448 49.6293C12.982 51.2281 12.8541 53.9142 14.5169 55.449C20.7842 61.2687 36.3888 80.2627 36.3888 80.2627C37.348 81.222 38.3713 84.2918 37.348 85.2511C36.3888 86.2104 35.6213 84.5476 34.662 83.5883C34.662 83.5883 25.0051 74.1872 20.3366 68.7512C18.8657 67.0245 16.2436 66.8966 14.4529 68.3036C12.5343 69.8384 12.7262 72.4605 14.325 74.1233L44.3829 106.036C56.406 116.972 66.7664 112.815 75.336 105.972C73.4175 104.181 69.3245 100.28 67.278 93.8207Z" fill="white"/>
<path d="M86.2716 84.4197C86.2077 83.972 86.0798 83.2685 85.9519 82.5011C85.4402 79.0476 85.3123 77.0651 84.8007 72.0768C84.8007 71.8209 84.6728 71.1175 84.6089 70.0942C84.5449 69.3907 84.417 68.4954 84.353 67.3443C84.0972 64.7222 84.0972 64.7861 83.8414 62.1001C83.7135 60.7571 83.5856 59.606 83.5216 58.8385C83.2658 56.2165 83.2658 55.8967 83.2019 55.3851C83.2019 55.1932 83.2019 55.0653 83.2019 55.0653C83.074 53.5944 83.2658 47.9665 81.8589 47.4549C81.4112 47.327 80.8996 47.7747 79.8763 48.67C78.8531 49.5653 77.1903 51.0363 76.0392 53.7223C75.6555 54.6176 75.0159 56.4083 74.952 58.6467C74.888 61.6524 75.8473 62.1001 75.4636 64.4664C75.2717 65.6175 74.7601 66.6408 73.7369 68.6873C72.9694 70.2861 72.202 71.5012 71.6264 72.3326C70.6671 73.8674 69.3241 76.2976 68.4927 79.4313C67.2776 84.1639 67.7253 87.9371 67.9811 89.8557C68.3648 92.4777 68.8764 96.4428 71.6904 100.408C73.481 102.966 75.5915 104.565 76.9985 105.524C77.638 104.949 78.5333 104.181 79.4926 103.222C79.7484 102.966 80.0682 102.646 80.5159 102.199C81.6031 101.047 82.4344 100.024 82.8182 99.5765C83.9054 98.1695 85.1205 96.2509 85.76 94.844C87.4867 90.815 86.7193 86.3383 86.2716 84.4197Z" fill="white"/>
<path d="M129.696 83.4604C128.417 80.1348 126.306 78.0244 125.347 77.0651C124.708 76.4256 123.748 75.5302 122.597 74.6349C121.958 74.1233 121.062 73.4198 120.295 72.9721C119.335 72.3965 117.417 71.5652 114.219 71.757C114.987 71.0535 115.69 70.1582 116.266 69.135C116.841 68.1117 117.225 66.9606 117.609 65.7455C117.929 64.5304 118.184 63.3792 118.312 62.1641C118.44 60.949 118.504 59.8618 118.568 58.8385C118.184 55.8967 117.097 53.3386 115.306 51.2921C114.859 50.7805 114.347 50.2689 113.836 49.7572C112.748 48.734 111.277 47.5828 108.847 46.3038C105.777 44.705 103.731 43.6178 100.725 43.1701C93.3067 42.0189 87.359 45.7282 86.016 46.5596C84.8649 47.2631 83.9696 47.9666 83.33 48.4782V48.734C84.3533 60.5013 85.5684 72.2686 86.9753 83.9081C87.8067 87.4255 87.9346 90.2394 87.2951 92.9254C85.8881 98.4893 80.2603 103.542 78.4057 105.268C78.1498 105.46 77.958 105.652 77.8301 105.78C79.4289 106.867 81.6033 108.146 84.4172 109.297C85.1847 109.617 88.766 111.024 93.8183 111.728C99.5741 112.559 104.243 111.983 106.353 111.6C108.719 111.216 112.94 110.512 117.801 108.018C119.591 107.059 123.237 105.204 126.306 101.623C128.417 99.1928 129.312 97.0824 129.568 96.3789C129.824 95.8033 130.271 94.6521 130.527 93.1173C130.719 91.9661 131.423 87.9371 129.696 83.4604ZM89.5974 67.5361L89.5334 58.3909C90.3009 57.5595 91.452 57.0479 92.923 56.7281C94.3939 56.4723 95.8648 56.4723 97.3357 56.7281C98.8066 56.9839 100.086 57.5595 101.173 58.3909C102.26 59.2223 102.9 60.3095 103.028 61.5885C102.9 63.1873 102.388 64.4024 101.493 65.1699C100.597 65.9373 99.5101 66.5129 98.231 66.8327C96.952 67.1524 95.545 67.3443 94.0101 67.4082C92.4753 67.4082 91.0044 67.4722 89.5974 67.5361ZM111.597 89.0243C111.341 90.6231 110.446 92.094 108.975 93.437C107.504 94.78 105.777 95.8033 103.667 96.5707C101.557 97.3382 99.1903 97.6579 96.6322 97.594C94.0741 97.53 91.516 96.9544 89.0218 95.8672L89.0858 81.0302C91.452 81.1581 93.8823 81.0941 96.4404 80.8383C98.9985 80.5825 101.493 79.943 103.987 78.9197C107.057 80.4546 109.103 82.1813 110.318 83.9081C111.469 85.7627 111.917 87.4255 111.597 89.0243Z" fill="white"/>
<defs>
<linearGradient id="paint0_linear" x1="-0.0160602" y1="71.5211" x2="144.001" y2="71.5211" gradientUnits="userSpaceOnUse">
<stop stop-color="#0400D0"/>
<stop offset="1" stop-color="#6605D2"/>
</linearGradient>
</defs>
</svg>
